<svg width="41" height="41" viewBox="0 0 41 41" fill="none" xmlns="http://www.w3.org/2000/svg">
<path d="M8.83464 33.8333H32.168C32.6402 33.8333 33.036 33.9931 33.3555 34.3125C33.6749 34.6319 33.8346 35.0278 33.8346 35.5C33.8346 35.9722 33.6749 36.3681 33.3555 36.6875C33.036 37.0069 32.6402 37.1667 32.168 37.1667H8.83464C8.36241 37.1667 7.96658 37.0069 7.64714 36.6875C7.32769 36.3681 7.16797 35.9722 7.16797 35.5C7.16797 35.0278 7.32769 34.6319 7.64714 34.3125C7.96658 33.9931 8.36241 33.8333 8.83464 33.8333ZM17.168 30.5C16.6957 30.5 16.2999 30.3403 15.9805 30.0208C15.661 29.7014 15.5013 29.3056 15.5013 28.8333V18.8333H12.2513C11.5569 18.8333 11.0569 18.5208 10.7513 17.8958C10.4457 17.2708 10.5013 16.6806 10.918 16.125L19.168 5.54167C19.3346 5.31944 19.536 5.15278 19.7721 5.04167C20.0082 4.93056 20.2513 4.875 20.5013 4.875C20.7513 4.875 20.9944 4.93056 21.2305 5.04167C21.4666 5.15278 21.668 5.31944 21.8346 5.54167L30.0846 16.125C30.5013 16.6806 30.5569 17.2708 30.2513 17.8958C29.9457 18.5208 29.4457 18.8333 28.7513 18.8333H25.5013V28.8333C25.5013 29.3056 25.3416 29.7014 25.0221 30.0208C24.7027 30.3403 24.3069 30.5 23.8346 30.5H17.168Z" fill="#666666"/>
</svg>
