<svg width="378" height="278" viewBox="0 0 378 278" fill="none" xmlns="http://www.w3.org/2000/svg">
<g clip-path="url(#clip0_1684_7549)">
<rect width="140" height="29.9999" rx="15" transform="matrix(0.707107 -0.707107 -0.707107 -0.707107 227.973 141.492)" fill="#CFEAFF"/>
<rect width="131.421" height="29.9999" rx="15" transform="matrix(0.707107 -0.707107 -0.707107 -0.707107 206.758 120.279)" fill="#A4D7FF"/>
<rect width="140" height="40" rx="20" transform="matrix(0.965926 0.258819 0.258819 -0.965926 33.0352 168.201)" fill="#DBEFFF"/>
<rect width="140" height="40" rx="20" transform="matrix(0.965926 0.258819 0.258819 -0.965926 43.3867 129.564)" fill="#A4D7FF"/>
<rect width="140" height="20" rx="10" transform="matrix(3.06521e-08 -1 -1 -5.79521e-08 211.969 277.928)" fill="#FFBF5E"/>
<rect width="140" height="20" rx="10" transform="matrix(2.87364e-08 -1 -1 -6.18156e-08 251.969 277.928)" fill="#FFBF5E"/>
<circle cx="106" cy="106" r="106" transform="matrix(-1 0 0 1 319.969 35.9277)" fill="url(#paint0_linear_1684_7549)"/>
<path fill-rule="evenodd" clip-rule="evenodd" d="M261.241 90.9273C266.596 95.6897 269.969 102.632 269.969 110.361C269.969 124.721 258.328 136.361 243.969 136.361C229.609 136.361 217.969 124.721 217.969 110.361C217.969 102.632 221.342 95.6897 226.696 90.9273C232.015 93.1398 237.849 94.3613 243.969 94.3613C250.088 94.3613 255.923 93.1398 261.241 90.9273Z" fill="#F7F7F7"/>
<path fill-rule="evenodd" clip-rule="evenodd" d="M75.4353 158.521L143.287 140.34L143.287 140.34C170.771 132.976 198.999 149.206 206.337 176.592C213.675 203.977 197.344 232.147 169.86 239.512L169.86 239.512L169.86 239.512L102.001 257.694L102.001 257.694C97.0037 259.033 91.8712 256.082 90.5371 251.103C89.2029 246.124 92.1722 241.002 97.1692 239.663L97.1694 239.663L165.029 221.48L165.029 221.48L115.314 234.801C117.783 234.112 119.244 231.568 118.581 229.095C117.914 226.605 115.348 225.13 112.849 225.799L72.1339 236.709L72.1337 236.709C67.1367 238.048 62.0043 235.097 60.6701 230.117C59.3359 225.138 62.3053 220.016 67.3023 218.678L67.3105 218.675L108.052 207.759C110.53 207.075 111.998 204.526 111.334 202.048C110.667 199.558 108.101 198.083 105.602 198.752L105.602 198.752L64.8867 209.662C59.8896 211.001 54.7572 208.05 53.423 203.071C52.0889 198.091 55.0582 192.97 60.0552 191.631L60.0611 191.629L100.771 180.721L100.771 180.721C103.269 180.051 104.754 177.49 104.087 175.001C103.423 172.525 100.881 171.052 98.3959 171.694L80.2594 176.554L80.2593 176.554C75.2623 177.893 70.1299 174.942 68.7958 169.963C67.4616 164.984 70.431 159.862 75.428 158.523L75.4353 158.521Z" fill="#4FB2FF"/>
<rect width="60" height="34" rx="17" transform="matrix(-1 0 0 1 344.969 144.928)" fill="#FFBF5E"/>
</g>
<defs>
<linearGradient id="paint0_linear_1684_7549" x1="50.124" y1="35.3333" x2="135.23" y2="186.144" gradientUnits="userSpaceOnUse">
<stop stop-color="#BFE3FF"/>
<stop offset="1" stop-color="#75C3FF"/>
</linearGradient>
<clipPath id="clip0_1684_7549">
<rect width="377.935" height="277.858" fill="white" transform="matrix(-1 0 0 1 377.969 0.0703125)"/>
</clipPath>
</defs>
</svg>
