<svg width="326" height="296" viewBox="0 0 326 296" fill="none" xmlns="http://www.w3.org/2000/svg">
<rect width="140" height="40" rx="20" transform="matrix(-0.38137 -0.924422 -0.924422 0.38137 230.836 130.117)" fill="#DBEFFF"/>
<rect width="140" height="40" rx="20" transform="matrix(-0.38137 -0.924422 -0.924422 0.38137 193.859 145.371)" fill="#A4D7FF"/>
<rect width="140" height="20" rx="10" transform="matrix(0.195244 -0.980755 -0.980755 -0.195244 173.977 295.303)" fill="#FFE45E"/>
<rect width="140" height="20" rx="10" transform="matrix(-0.399168 -0.916878 -0.916878 0.399168 254.945 284.887)" fill="#FFE45E"/>
<circle cx="106" cy="106" r="106" transform="matrix(-1 0 0 1 295.836 52.6973)" fill="url(#paint0_linear_1690_8002)"/>
<path fill-rule="evenodd" clip-rule="evenodd" d="M237.158 112.697C238.187 125.59 238.836 144.383 238.836 165.31C238.836 204.184 236.597 235.697 233.836 235.697C231.075 235.697 228.836 204.184 228.836 165.31C228.836 144.383 229.485 125.59 230.514 112.697C231.537 118.687 232.659 121.994 233.836 121.994C235.013 121.994 236.135 118.687 237.158 112.697Z" fill="#F7F7F7"/>
<path fill-rule="evenodd" clip-rule="evenodd" d="M247.619 112.697C252.047 114.479 254.836 117.077 254.836 119.969C254.836 125.342 245.21 129.697 233.336 129.697C221.462 129.697 211.836 125.342 211.836 119.969C211.836 117.077 214.625 114.479 219.053 112.697C223.451 113.525 228.276 113.982 233.336 113.982C238.396 113.982 243.221 113.525 247.619 112.697Z" fill="#F7F7F7"/>
<path fill-rule="evenodd" clip-rule="evenodd" d="M89.2314 130.659L144.962 173.42L144.962 173.42C167.536 190.74 171.845 223.016 154.586 245.509C137.328 268.002 105.037 272.196 82.4631 254.875L82.4631 254.875L82.4632 254.875L26.7263 212.109L26.7262 212.109C22.6218 208.96 21.8384 203.092 24.9763 199.002C28.1143 194.912 33.9853 194.15 38.0897 197.299L38.0898 197.299L93.8266 240.065L93.8266 240.065L52.993 208.734C55.0432 210.273 57.9507 209.884 59.5094 207.852C61.0784 205.807 60.6866 202.873 58.6345 201.298L25.1924 175.639L25.1923 175.639C21.088 172.49 20.3045 166.622 23.4425 162.532C26.5804 158.442 32.4514 157.68 36.5558 160.829L36.5626 160.834L70.0258 186.51C72.0766 188.06 74.9927 187.673 76.5545 185.637C78.1235 183.592 77.7318 180.658 75.6796 179.083L75.6797 179.083L42.2377 153.424C38.1333 150.275 37.3499 144.406 40.4878 140.317C43.6258 136.227 49.4968 135.465 53.6011 138.614L53.606 138.617L87.0432 164.273L87.0433 164.273C89.0955 165.848 92.031 165.466 93.6 163.422C95.1604 161.388 94.7814 158.475 92.7585 156.894L77.862 145.464L77.8619 145.464C73.7576 142.315 72.9742 136.447 76.1121 132.357C79.25 128.267 85.1211 127.505 89.2254 130.654L89.2314 130.659Z" fill="#4FB2FF"/>
<rect width="60" height="34" rx="17" transform="matrix(-0.849765 -0.527161 -0.527161 0.849765 325.289 180.066)" fill="#FFE45E"/>
<defs>
<linearGradient id="paint0_linear_1690_8002" x1="50.124" y1="35.3333" x2="135.23" y2="186.144" gradientUnits="userSpaceOnUse">
<stop stop-color="#BFE3FF"/>
<stop offset="1" stop-color="#75C3FF"/>
</linearGradient>
</defs>
</svg>
