<svg width="36" height="49" viewBox="0 0 36 49" fill="none" xmlns="http://www.w3.org/2000/svg">
<path d="M18 30.9474C22.2686 30.9474 25.6886 27.4916 25.6886 23.2105L25.7143 7.73684C25.7143 3.45579 22.2686 0 18 0C13.7314 0 10.2857 3.45579 10.2857 7.73684V23.2105C10.2857 27.4916 13.7314 30.9474 18 30.9474ZM31.6286 23.2105C31.6286 30.9474 25.0971 36.3632 18 36.3632C10.9029 36.3632 4.37143 30.9474 4.37143 23.2105H0C0 32.0047 6.99429 39.2774 15.4286 40.541V49H20.5714V40.541C29.0057 39.3032 36 32.0305 36 23.2105H31.6286Z" fill="#363636"/>
</svg>
