<svg width="45" height="47" viewBox="0 0 45 47" fill="none" xmlns="http://www.w3.org/2000/svg">
<path d="M40 22.2632H35.75C35.75 24.0937 35.35 25.8005 34.675 27.3342L37.75 30.3768C39.15 27.9526 40 25.2068 40 22.2632ZM29.95 22.6837C29.95 22.5353 30 22.4116 30 22.2632V7.42105C30 3.31474 26.65 0 22.5 0C18.35 0 15 3.31474 15 7.42105V7.86632L29.95 22.6837ZM3.175 2.47368L0 5.61526L15.025 20.4821V22.2632C15.025 26.3695 18.35 29.6842 22.5 29.6842C23.05 29.6842 23.6 29.61 24.125 29.4863L28.275 33.5926C26.5 34.4089 24.525 34.8789 22.5 34.8789C15.6 34.8789 9.25 29.6842 9.25 22.2632H5C5 30.6984 11.8 37.6742 20 38.8863V47H25V38.8863C27.275 38.5647 29.425 37.7732 31.35 36.66L41.825 47L45 43.8584L3.175 2.47368Z" fill="#D84141"/>
</svg>
